# xmcd
#
# Track frame offsets: 
#        150
#        17010
#        37457
#        63848
#        85150
#        111248
#        130618
#        154700
#        173084
#        196957
#        216883
#
# Disc length: 3171 seconds
#
# Revision: 0
# Processed by: cddbd v1.5.2PL0 Copyright (c) Steve Scherf et al.
# Submitted via: ExactAudioCopy v1.3
#
DISCID=910c610b
DTITLE=Dudley Taft - Summer Rain
DYEAR=2017
DGENRE=Blues Rock
TTITLE0=Flying On Love
TTITLE1=Dark Blue Star
TTITLE2=Summer Rain
TTITLE3=Edge Of Insane
TTITLE4=Live Or Die
TTITLE5=Pistols At Ten Paces
TTITLE6=Don't Let It Fade
TTITLE7=Moonbeam
TTITLE8=Come With Me
TTITLE9=I Lost My Way
TTITLE10=Find My Way Back Home
EXTD=
EXTT0=
EXTT1=
EXTT2=
EXTT3=
EXTT4=
EXTT5=
EXTT6=
EXTT7=
EXTT8=
EXTT9=
EXTT10=
PLAYORDER=
